<svg width="121" height="211" viewBox="0 0 121 211" fill="none" xmlns="http://www.w3.org/2000/svg">
<path fill-rule="evenodd" clip-rule="evenodd" d="M21.584 211H21.5754C19.2811 211 17.375 209.101 17.375 206.718V202.208C7.853 202.208 0.125 194.331 0.125 184.625V70.3333C0.125 60.6273 7.853 52.75 17.375 52.75H34.625V8.79167C34.625 3.93867 38.489 0 43.25 0H77.75C82.511 0 86.375 3.93867 86.375 8.79167V52.75H103.625C113.156 52.75 120.875 60.6273 120.875 70.3333V184.625C120.875 194.331 113.156 202.208 103.625 202.208V206.499C103.625 208.987 101.659 211 99.209 211H99.2004C96.9147 211 95 209.119 95 206.718V202.208H26V206.499C26 208.987 24.0249 211 21.584 211V211ZM99.3125 96.7083C101.702 96.7083 103.625 94.739 103.625 92.3125C103.625 89.886 101.702 87.9167 99.3125 87.9167H21.6875C19.307 87.9167 17.375 89.886 17.375 92.3125C17.375 94.739 19.307 96.7083 21.6875 96.7083H26.0604C25.4394 105.825 29.4155 113.729 34.6509 117.386L34.625 130.363L65.0626 161.512L89.5059 136.693L59.0682 105.553L47.9506 105.526C46.8811 102.326 45.0613 99.1876 42.9654 96.7083H99.3125V96.7083ZM57.4726 125.466L73.1788 141.475L70.1255 144.579L54.4194 128.578L57.4726 125.466V125.466ZM63.3635 140.799L60.3189 143.911L49.8481 133.238L52.9014 130.134L63.3635 140.799ZM62.0439 120.806L77.75 136.816L74.6967 139.919L58.9993 123.91L62.0439 120.806ZM48.4854 114.424C47.6056 116.912 45.6305 118.485 43.2586 119.162C43.6209 122.82 48.011 124.437 50.5899 121.826C52.9962 119.4 51.8146 115.197 48.4854 114.424ZM36.7468 96.7083C39.6275 98.9678 42.0425 102.317 43.3276 105.518L34.6767 105.5L34.6681 111.496L34.5129 111.303C31.6494 107.777 29.9503 102.599 30.3988 96.7083H36.7468ZM73.4375 17.5833H47.5625C45.182 17.5833 43.25 19.5527 43.25 21.9792V52.75H77.75V21.9792C77.75 19.5527 75.818 17.5833 73.4375 17.5833Z" fill="#EDF2EF"/>
</svg>
